<mxfile host="app.diagrams.net" modified="2021-10-24T07:20:48.531Z" agent="5.0 (Windows NT 10.0; Win64; x64) AppleWebKit/537.36 (KHTML, like Gecko) Chrome/95.0.4638.54 Safari/537.36" etag="QFR3D1SRO8T07IKQyyJY" version="15.5.2" type="github">
  <diagram id="H7uGVd6uUkmrxRJBJKdL" name="Page-1">
    <mxGraphModel dx="2143" dy="980" grid="1" gridSize="10" guides="1" tooltips="1" connect="1" arrows="1" fold="1" page="1" pageScale="1" pageWidth="225" pageHeight="169" background="#ffffff" math="0" shadow="0">
      <root>
        <mxCell id="0" />
        <mxCell id="1" parent="0" />
        <mxCell id="E-aPnvL4wcG2CTVnwj5k-7" style="edgeStyle=orthogonalEdgeStyle;rounded=0;orthogonalLoop=1;jettySize=auto;html=1;exitX=0.5;exitY=1;exitDx=0;exitDy=0;entryX=0.5;entryY=0;entryDx=0;entryDy=0;strokeColor=#97FF21;strokeWidth=4;" parent="1" source="E-aPnvL4wcG2CTVnwj5k-1" target="E-aPnvL4wcG2CTVnwj5k-2" edge="1">
          <mxGeometry relative="1" as="geometry" />
        </mxCell>
        <mxCell id="E-aPnvL4wcG2CTVnwj5k-1" value="Pre-Active&lt;br style=&quot;font-size: 20px;&quot;&gt;o&lt;br style=&quot;font-size: 20px;&quot;&gt;IDLE" style="ellipse;whiteSpace=wrap;html=1;fontSize=20;fontStyle=1" parent="1" vertex="1">
          <mxGeometry x="345" y="85" width="150" height="110" as="geometry" />
        </mxCell>
        <mxCell id="E-aPnvL4wcG2CTVnwj5k-2" value="Active" style="ellipse;whiteSpace=wrap;html=1;strokeWidth=1;perimeterSpacing=0;fontSize=20;fontStyle=1" parent="1" vertex="1">
          <mxGeometry x="345" y="350" width="150" height="110" as="geometry" />
        </mxCell>
        <mxCell id="E-aPnvL4wcG2CTVnwj5k-3" value="Suspend" style="ellipse;whiteSpace=wrap;html=1;fontSize=20;fontStyle=1" parent="1" vertex="1">
          <mxGeometry x="775" y="570" width="150" height="110" as="geometry" />
        </mxCell>
        <mxCell id="E-aPnvL4wcG2CTVnwj5k-21" style="edgeStyle=orthogonalEdgeStyle;rounded=0;orthogonalLoop=1;jettySize=auto;html=1;entryX=0.178;entryY=0.924;entryDx=0;entryDy=0;entryPerimeter=0;exitX=0.806;exitY=0.945;exitDx=0;exitDy=0;exitPerimeter=0;strokeColor=#97FF21;strokeWidth=4;" parent="1" source="E-aPnvL4wcG2CTVnwj5k-4" target="E-aPnvL4wcG2CTVnwj5k-3" edge="1">
          <mxGeometry relative="1" as="geometry">
            <Array as="points">
              <mxPoint x="96" y="672" />
            </Array>
            <mxPoint x="185" y="672" as="sourcePoint" />
          </mxGeometry>
        </mxCell>
        <mxCell id="E-aPnvL4wcG2CTVnwj5k-4" value="Pre-Deactive" style="ellipse;whiteSpace=wrap;html=1;fontSize=20;fontStyle=1" parent="1" vertex="1">
          <mxGeometry x="-25" y="570" width="150" height="110" as="geometry" />
        </mxCell>
        <mxCell id="E-aPnvL4wcG2CTVnwj5k-5" value="Deactive" style="ellipse;whiteSpace=wrap;html=1;fontSize=20;fontStyle=1" parent="1" vertex="1">
          <mxGeometry x="345" y="840" width="150" height="110" as="geometry" />
        </mxCell>
        <mxCell id="E-aPnvL4wcG2CTVnwj5k-8" value="Activar Servicio&lt;br style=&quot;font-size: 14px;&quot;&gt;API - Postman&lt;br style=&quot;font-size: 14px;&quot;&gt;Activations" style="text;html=1;align=center;verticalAlign=middle;resizable=0;points=[];autosize=1;strokeWidth=1;fillColor=#f8cecc;strokeColor=#b85450;fontSize=14;" parent="1" vertex="1">
          <mxGeometry x="365" y="224" width="110" height="60" as="geometry" />
        </mxCell>
        <mxCell id="E-aPnvL4wcG2CTVnwj5k-9" value="" style="endArrow=classic;html=1;rounded=0;entryX=0;entryY=0;entryDx=0;entryDy=0;startArrow=none;strokeWidth=4;strokeColor=#FF3333;" parent="1" source="E-aPnvL4wcG2CTVnwj5k-10" edge="1" target="E-aPnvL4wcG2CTVnwj5k-3">
          <mxGeometry width="50" height="50" relative="1" as="geometry">
            <mxPoint x="805" y="480" as="sourcePoint" />
            <mxPoint x="775" y="615" as="targetPoint" />
            <Array as="points" />
          </mxGeometry>
        </mxCell>
        <mxCell id="E-aPnvL4wcG2CTVnwj5k-11" value="" style="endArrow=classic;exitX=0.001;exitY=0.6;exitDx=0;exitDy=0;entryX=1;entryY=0;entryDx=0;entryDy=0;startArrow=none;exitPerimeter=0;fontColor=#97FF21;fontSize=14;html=1;rounded=0;strokeColor=#97FF21;jumpSize=11;strokeWidth=4;" parent="1" source="E-aPnvL4wcG2CTVnwj5k-12" target="E-aPnvL4wcG2CTVnwj5k-2" edge="1">
          <mxGeometry width="50" height="50" relative="1" as="geometry">
            <mxPoint x="585" y="320" as="sourcePoint" />
            <mxPoint x="495" y="385" as="targetPoint" />
            <Array as="points" />
          </mxGeometry>
        </mxCell>
        <mxCell id="E-aPnvL4wcG2CTVnwj5k-13" value="" style="endArrow=classic;html=1;rounded=0;entryX=1;entryY=0.405;entryDx=0;entryDy=0;exitX=0.014;exitY=0.405;exitDx=0;exitDy=0;exitPerimeter=0;entryPerimeter=0;strokeColor=#FF3333;strokeWidth=4;" parent="1" source="E-aPnvL4wcG2CTVnwj5k-3" target="E-aPnvL4wcG2CTVnwj5k-4" edge="1">
          <mxGeometry width="50" height="50" relative="1" as="geometry">
            <mxPoint x="745" y="606" as="sourcePoint" />
            <mxPoint x="285" y="420" as="targetPoint" />
          </mxGeometry>
        </mxCell>
        <mxCell id="E-aPnvL4wcG2CTVnwj5k-17" value="Baja de Servicio Temporal&lt;br style=&quot;font-size: 14px;&quot;&gt;API - Postman&lt;br style=&quot;font-size: 14px;&quot;&gt;Predeactive" style="text;html=1;align=center;verticalAlign=middle;resizable=0;points=[];autosize=1;strokeWidth=1;fillColor=#f8cecc;strokeColor=#b85450;fontSize=14;" parent="1" vertex="1">
          <mxGeometry x="330" y="575" width="180" height="60" as="geometry" />
        </mxCell>
        <mxCell id="E-aPnvL4wcG2CTVnwj5k-22" value="ReactivaciÃ³n de Servicio&lt;br style=&quot;font-size: 14px;&quot;&gt;API - Postman&lt;br style=&quot;font-size: 14px;&quot;&gt;Reactive" style="text;html=1;align=center;verticalAlign=middle;resizable=0;points=[];autosize=1;strokeWidth=1;fillColor=#f8cecc;strokeColor=#b85450;fontSize=14;" parent="1" vertex="1">
          <mxGeometry x="340" y="645" width="170" height="60" as="geometry" />
        </mxCell>
        <mxCell id="E-aPnvL4wcG2CTVnwj5k-26" value="" style="endArrow=classic;html=1;rounded=0;entryX=0;entryY=1;entryDx=0;entryDy=0;exitX=1.02;exitY=0.5;exitDx=0;exitDy=0;startArrow=none;exitPerimeter=0;strokeColor=#97FF21;strokeWidth=4;" parent="1" source="E-aPnvL4wcG2CTVnwj5k-28" target="E-aPnvL4wcG2CTVnwj5k-2" edge="1">
          <mxGeometry width="50" height="50" relative="1" as="geometry">
            <mxPoint x="130" y="555" as="sourcePoint" />
            <mxPoint x="180" y="505" as="targetPoint" />
            <Array as="points" />
          </mxGeometry>
        </mxCell>
        <mxCell id="E-aPnvL4wcG2CTVnwj5k-29" value="" style="endArrow=classic;html=1;rounded=0;exitX=0.5;exitY=1;exitDx=0;exitDy=0;entryX=0;entryY=0.5;entryDx=0;entryDy=0;strokeWidth=4;" parent="1" source="E-aPnvL4wcG2CTVnwj5k-4" target="E-aPnvL4wcG2CTVnwj5k-5" edge="1">
          <mxGeometry width="50" height="50" relative="1" as="geometry">
            <mxPoint x="415" y="770" as="sourcePoint" />
            <mxPoint x="465" y="720" as="targetPoint" />
          </mxGeometry>
        </mxCell>
        <mxCell id="E-aPnvL4wcG2CTVnwj5k-30" value="Baja de Servicio Definitiva&lt;br style=&quot;font-size: 14px;&quot;&gt;API - Postman&lt;br style=&quot;font-size: 14px;&quot;&gt;Deactive" style="text;html=1;align=center;verticalAlign=middle;resizable=0;points=[];autosize=1;strokeWidth=1;fillColor=#f8cecc;strokeColor=#b85450;fontSize=14;" parent="1" vertex="1">
          <mxGeometry x="120" y="755" width="180" height="60" as="geometry" />
        </mxCell>
        <mxCell id="E-aPnvL4wcG2CTVnwj5k-10" value="Suspender Servicio&lt;br style=&quot;font-size: 14px;&quot;&gt;API - Postman&lt;br style=&quot;font-size: 14px;&quot;&gt;Suspends" style="text;html=1;align=center;verticalAlign=middle;resizable=0;points=[];autosize=1;strokeWidth=1;fillColor=#f8cecc;strokeColor=#b85450;fontSize=14;" parent="1" vertex="1">
          <mxGeometry x="725" y="415" width="140" height="60" as="geometry" />
        </mxCell>
        <mxCell id="cA8Drn6Rid59aDa7ESIs-1" value="" style="endArrow=none;html=1;rounded=0;exitX=1;exitY=1;exitDx=0;exitDy=0;strokeColor=#FF3333;strokeWidth=4;entryX=-0.036;entryY=0.65;entryDx=0;entryDy=0;entryPerimeter=0;" edge="1" parent="1" source="E-aPnvL4wcG2CTVnwj5k-2" target="E-aPnvL4wcG2CTVnwj5k-10">
          <mxGeometry width="50" height="50" relative="1" as="geometry">
            <mxPoint x="473.1258045411155" y="443.82270331850737" as="sourcePoint" />
            <mxPoint x="725" y="444" as="targetPoint" />
            <Array as="points" />
          </mxGeometry>
        </mxCell>
        <mxCell id="E-aPnvL4wcG2CTVnwj5k-12" value="Reanudar Servicio&lt;br style=&quot;font-size: 14px;&quot;&gt;API - Postman&lt;br style=&quot;font-size: 14px;&quot;&gt;Resumens" style="text;html=1;align=center;verticalAlign=middle;resizable=0;points=[];autosize=1;strokeWidth=1;fillColor=#f8cecc;strokeColor=#b85450;fontSize=14;" parent="1" vertex="1">
          <mxGeometry x="835" y="335" width="130" height="60" as="geometry" />
        </mxCell>
        <mxCell id="cA8Drn6Rid59aDa7ESIs-2" value="" style="endArrow=none;html=1;rounded=0;exitX=1;exitY=0;exitDx=0;exitDy=0;fontColor=#97FF21;strokeColor=#97FF21;strokeWidth=4;" edge="1" parent="1" source="E-aPnvL4wcG2CTVnwj5k-3">
          <mxGeometry width="50" height="50" relative="1" as="geometry">
            <mxPoint x="903.1258045410727" y="576.1772966815236" as="sourcePoint" />
            <mxPoint x="903" y="390" as="targetPoint" />
            <Array as="points" />
          </mxGeometry>
        </mxCell>
        <mxCell id="E-aPnvL4wcG2CTVnwj5k-24" value="Baja de Servicio Temporal&lt;br style=&quot;font-size: 14px;&quot;&gt;API - Postman&lt;br style=&quot;font-size: 14px;&quot;&gt;Predeactive" style="text;html=1;align=center;verticalAlign=middle;resizable=0;points=[];autosize=1;strokeWidth=1;fillColor=#f8cecc;strokeColor=#b85450;fontSize=14;" parent="1" vertex="1">
          <mxGeometry x="-90" y="335" width="180" height="60" as="geometry" />
        </mxCell>
        <mxCell id="cA8Drn6Rid59aDa7ESIs-4" value="" style="endArrow=classic;html=1;rounded=0;fontSize=20;entryX=1.02;entryY=0.514;entryDx=0;entryDy=0;entryPerimeter=0;exitX=0;exitY=0;exitDx=0;exitDy=0;strokeColor=#FF3333;strokeWidth=4;" edge="1" parent="1" source="E-aPnvL4wcG2CTVnwj5k-2" target="E-aPnvL4wcG2CTVnwj5k-24">
          <mxGeometry width="50" height="50" relative="1" as="geometry">
            <mxPoint x="195" y="340" as="sourcePoint" />
            <mxPoint x="245" y="290" as="targetPoint" />
          </mxGeometry>
        </mxCell>
        <mxCell id="cA8Drn6Rid59aDa7ESIs-5" value="" style="endArrow=classic;html=1;rounded=0;fontSize=20;exitX=0.5;exitY=1.02;exitDx=0;exitDy=0;exitPerimeter=0;entryX=0;entryY=0;entryDx=0;entryDy=0;strokeColor=#FF3333;strokeWidth=4;" edge="1" parent="1" source="E-aPnvL4wcG2CTVnwj5k-24" target="E-aPnvL4wcG2CTVnwj5k-4">
          <mxGeometry width="50" height="50" relative="1" as="geometry">
            <mxPoint x="-15" y="490" as="sourcePoint" />
            <mxPoint x="35" y="440" as="targetPoint" />
          </mxGeometry>
        </mxCell>
        <mxCell id="E-aPnvL4wcG2CTVnwj5k-28" value="ReactivaciÃ³n de Servicio&lt;br style=&quot;font-size: 14px;&quot;&gt;API - Postman&lt;br style=&quot;font-size: 14px;&quot;&gt;Reactive" style="text;html=1;align=center;verticalAlign=middle;resizable=0;points=[];autosize=1;strokeWidth=1;fillColor=#f8cecc;strokeColor=#b85450;fontSize=14;" parent="1" vertex="1">
          <mxGeometry x="55" y="415" width="170" height="60" as="geometry" />
        </mxCell>
        <mxCell id="cA8Drn6Rid59aDa7ESIs-6" value="" style="endArrow=none;html=1;rounded=0;entryX=0.307;entryY=1.04;entryDx=0;entryDy=0;entryPerimeter=0;exitX=1;exitY=0;exitDx=0;exitDy=0;strokeColor=#97FF21;strokeWidth=4;" edge="1" parent="1" source="E-aPnvL4wcG2CTVnwj5k-4" target="E-aPnvL4wcG2CTVnwj5k-28">
          <mxGeometry width="50" height="50" relative="1" as="geometry">
            <mxPoint x="103.03300858899115" y="606.1091270347395" as="sourcePoint" />
            <mxPoint x="350.4000000000001" y="435.14" as="targetPoint" />
            <Array as="points" />
          </mxGeometry>
        </mxCell>
      </root>
    </mxGraphModel>
  </diagram>
</mxfile>
